# xmcd
#
# Track frame offsets:
#	150
#	16308
#	34325
#	51853
#	64066
#	80501
#	98180
#	114387
#	130398
#	147456
#	164150
#	181300
#	196330
#	210363
#
# Disc length: 3090 seconds
#
# Revision: 1
# Processed by: cddbd v1.5.1PL0 Copyright (c) Steve Scherf et al.
# Submitted via: audiograbber 1.83.01
#
DISCID=ca0c100e
DTITLE=Various Artist - SD102
DYEAR=1900
DGENRE=Karaoke Country
TTITLE0=Diamond Rio - I Believe
TTITLE1=Martina McBride - Concrete Angel
TTITLE2=Blake Shelton - Baby, The
TTITLE3=Vince Gill  - Next Big Thing
TTITLE4=Tracy Byrd - Lately
TTITLE5=Faith Hill - When The Lights Go Down
TTITLE6=Chris Cagle - What A Beautiful Day
TTITLE7=Deana Carter - There's No Limit
TTITLE8=Neal McCoy - Luckiest Man In The World, The
TTITLE9=Sixwire - Way Too Deep
TTITLE10=Eric Heatherly - Sometimes It's Just Your Time
TTITLE11=Alison Krauss - New Favorite
TTITLE12=Kelly Willis - If I Let You
TTITLE13=Craig Morgan - Almost Home
EXTD=
EXTT0=
EXTT1=
EXTT2=
EXTT3=
EXTT4=
EXTT5=
EXTT6=
EXTT7=
EXTT8=
EXTT9=
EXTT10=
EXTT11=
EXTT12=
EXTT13=
PLAYORDER=
